<svg width="174" height="64" viewBox="0 0 174 64" fill="none" xmlns="http://www.w3.org/2000/svg">
<g filter="url(#filter0_dd_194_3513)">
<g clip-path="url(#clip0_194_3513)">
<rect x="12" y="2" width="40" height="40" rx="12" fill="#10B981"/>
<g filter="url(#filter1_f_194_3513)">
<rect x="36" y="26" width="20" height="20" rx="10" fill="white" fill-opacity="0.2"/>
</g>
<path d="M31.9996 32C31.9996 32 23.9996 27.5 23.9996 20.2C23.9729 19.1327 24.1601 18.0709 24.5502 17.0771C24.9402 16.0833 25.5253 15.1776 26.2708 14.4134C27.0164 13.6492 27.9073 13.042 28.8912 12.6275C29.8751 12.213 30.932 11.9997 31.9996 12C33.0672 11.9997 34.1241 12.213 35.1079 12.6275C36.0918 13.042 36.9828 13.6492 37.7283 14.4134C38.4739 15.1776 39.0589 16.0833 39.449 17.0771C39.8391 18.0709 40.0263 19.1327 39.9996 20.2C39.9996 27.5 31.9996 32 31.9996 32Z" stroke="white" stroke-width="2.5" stroke-linecap="round" stroke-linejoin="round"/>
<path d="M32 17C30 17 29 18.5 29 20C29 21.5 30 22.5 32 24C34 25.5 35 22.5 35 21C35 19.5 34 17 32 17Z" fill="white" fill-opacity="0.2" stroke="white" stroke-width="2.5" stroke-linecap="round" stroke-linejoin="round"/>
<path d="M32 22C33.1046 22 34 21.1046 34 20C34 18.8954 33.1046 18 32 18C30.8954 18 30 18.8954 30 20C30 21.1046 30.8954 22 32 22Z" fill="white" stroke="white" stroke-width="2.5" stroke-linecap="round" stroke-linejoin="round"/>
</g>
</g>
<path d="M73.32 17.788C72.936 17.084 72.408 16.548 71.736 16.18C71.064 15.812 70.28 15.628 69.384 15.628C68.392 15.628 67.512 15.852 66.744 16.3C65.976 16.748 65.376 17.388 64.944 18.22C64.512 19.052 64.296 20.012 64.296 21.1C64.296 22.22 64.512 23.196 64.944 24.028C65.392 24.86 66.008 25.5 66.792 25.948C67.576 26.396 68.488 26.62 69.528 26.62C70.808 26.62 71.856 26.284 72.672 25.612C73.488 24.924 74.024 23.972 74.28 22.756H68.52V20.188H77.592V23.116C77.368 24.284 76.888 25.364 76.152 26.356C75.416 27.348 74.464 28.148 73.296 28.756C72.144 29.348 70.848 29.644 69.408 29.644C67.792 29.644 66.328 29.284 65.016 28.564C63.72 27.828 62.696 26.812 61.944 25.516C61.208 24.22 60.84 22.748 60.84 21.1C60.84 19.452 61.208 17.98 61.944 16.684C62.696 15.372 63.72 14.356 65.016 13.636C66.328 12.9 67.784 12.532 69.384 12.532C71.272 12.532 72.912 12.996 74.304 13.924C75.696 14.836 76.656 16.124 77.184 17.788H73.32ZM83.4379 18.268C83.8699 17.564 84.4299 17.012 85.1179 16.612C85.8219 16.212 86.6219 16.012 87.5179 16.012V19.54H86.6299C85.5739 19.54 84.7739 19.788 84.2299 20.284C83.7019 20.78 83.4379 21.644 83.4379 22.876V29.5H80.0779V16.204H83.4379V18.268ZM102.141 22.564C102.141 23.044 102.109 23.476 102.045 23.86H92.325C92.405 24.82 92.741 25.572 93.333 26.116C93.925 26.66 94.653 26.932 95.517 26.932C96.765 26.932 97.653 26.396 98.181 25.324H101.805C101.421 26.604 100.685 27.66 99.597 28.492C98.509 29.308 97.173 29.716 95.589 29.716C94.309 29.716 93.157 29.436 92.133 28.876C91.125 28.3 90.333 27.492 89.757 26.452C89.197 25.412 88.917 24.212 88.917 22.852C88.917 21.476 89.197 20.268 89.757 19.228C90.317 18.188 91.101 17.388 92.109 16.828C93.117 16.268 94.277 15.988 95.589 15.988C96.853 15.988 97.981 16.26 98.973 16.804C99.981 17.348 100.757 18.124 101.301 19.132C101.861 20.124 102.141 21.268 102.141 22.564ZM98.661 21.604C98.645 20.74 98.333 20.052 97.725 19.54C97.117 19.012 96.373 18.748 95.493 18.748C94.661 18.748 93.957 19.004 93.381 19.516C92.821 20.012 92.477 20.708 92.349 21.604H98.661ZM116.954 22.564C116.954 23.044 116.922 23.476 116.858 23.86H107.138C107.218 24.82 107.554 25.572 108.146 26.116C108.738 26.66 109.466 26.932 110.33 26.932C111.578 26.932 112.466 26.396 112.994 25.324H116.618C116.234 26.604 115.498 27.66 114.41 28.492C113.322 29.308 111.986 29.716 110.402 29.716C109.122 29.716 107.97 29.436 106.946 28.876C105.938 28.3 105.146 27.492 104.57 26.452C104.01 25.412 103.729 24.212 103.729 22.852C103.729 21.476 104.01 20.268 104.57 19.228C105.13 18.188 105.914 17.388 106.922 16.828C107.93 16.268 109.09 15.988 110.402 15.988C111.666 15.988 112.794 16.26 113.786 16.804C114.794 17.348 115.57 18.124 116.114 19.132C116.674 20.124 116.954 21.268 116.954 22.564ZM113.474 21.604C113.458 20.74 113.146 20.052 112.538 19.54C111.93 19.012 111.186 18.748 110.306 18.748C109.474 18.748 108.77 19.004 108.194 19.516C107.634 20.012 107.29 20.708 107.162 21.604H113.474ZM126.774 16.012C128.358 16.012 129.638 16.516 130.614 17.524C131.59 18.516 132.078 19.908 132.078 21.7V29.5H128.718V22.156C128.718 21.1 128.454 20.292 127.926 19.732C127.398 19.156 126.678 18.868 125.766 18.868C124.838 18.868 124.102 19.156 123.558 19.732C123.03 20.292 122.766 21.1 122.766 22.156V29.5H119.406V16.204H122.766V17.86C123.214 17.284 123.782 16.836 124.47 16.516C125.174 16.18 125.942 16.012 126.774 16.012Z" fill="#323232"/>
<path d="M146.937 17.788C146.553 17.084 146.025 16.548 145.353 16.18C144.681 15.812 143.897 15.628 143.001 15.628C142.009 15.628 141.129 15.852 140.361 16.3C139.593 16.748 138.993 17.388 138.561 18.22C138.129 19.052 137.913 20.012 137.913 21.1C137.913 22.22 138.129 23.196 138.561 24.028C139.009 24.86 139.625 25.5 140.409 25.948C141.193 26.396 142.105 26.62 143.145 26.62C144.425 26.62 145.473 26.284 146.289 25.612C147.105 24.924 147.641 23.972 147.897 22.756H142.137V20.188H151.209V23.116C150.985 24.284 150.505 25.364 149.769 26.356C149.033 27.348 148.081 28.148 146.913 28.756C145.761 29.348 144.465 29.644 143.025 29.644C141.409 29.644 139.945 29.284 138.633 28.564C137.337 27.828 136.313 26.812 135.561 25.516C134.825 24.22 134.457 22.748 134.457 21.1C134.457 19.452 134.825 17.98 135.561 16.684C136.313 15.372 137.337 14.356 138.633 13.636C139.945 12.9 141.401 12.532 143.001 12.532C144.889 12.532 146.529 12.996 147.921 13.924C149.313 14.836 150.273 16.124 150.801 17.788H146.937ZM157.055 12.748V29.5H153.695V12.748H157.055ZM166.159 29.668C164.991 29.668 163.935 29.468 162.991 29.068C162.063 28.668 161.327 28.092 160.783 27.34C160.239 26.588 159.959 25.7 159.943 24.676H163.543C163.591 25.364 163.831 25.908 164.263 26.308C164.711 26.708 165.319 26.908 166.087 26.908C166.871 26.908 167.487 26.724 167.935 26.356C168.383 25.972 168.607 25.476 168.607 24.868C168.607 24.372 168.455 23.964 168.151 23.644C167.847 23.324 167.463 23.076 166.999 22.9C166.551 22.708 165.927 22.5 165.127 22.276C164.039 21.956 163.151 21.644 162.463 21.34C161.791 21.02 161.207 20.548 160.711 19.924C160.231 19.284 159.991 18.436 159.991 17.38C159.991 16.388 160.239 15.524 160.735 14.788C161.231 14.052 161.927 13.492 162.823 13.108C163.719 12.708 164.743 12.508 165.895 12.508C167.623 12.508 169.023 12.932 170.095 13.78C171.183 14.612 171.783 15.78 171.895 17.284H168.199C168.167 16.708 167.919 16.236 167.455 15.868C167.007 15.484 166.407 15.292 165.655 15.292C164.999 15.292 164.471 15.46 164.071 15.796C163.687 16.132 163.495 16.62 163.495 17.26C163.495 17.708 163.639 18.084 163.927 18.388C164.231 18.676 164.599 18.916 165.031 19.108C165.479 19.284 166.103 19.492 166.903 19.732C167.991 20.052 168.879 20.372 169.567 20.692C170.255 21.012 170.847 21.492 171.343 22.132C171.839 22.772 172.087 23.612 172.087 24.652C172.087 25.548 171.855 26.38 171.391 27.148C170.927 27.916 170.247 28.532 169.351 28.996C168.455 29.444 167.391 29.668 166.159 29.668Z" fill="#ECFDF5"/>
<defs>
<filter id="filter0_dd_194_3513" x="0" y="0" width="64" height="64" filterUnits="userSpaceOnUse" color-interpolation-filters="sRGB">
<feFlood flood-opacity="0" result="BackgroundImageFix"/>
<feColorMatrix in="SourceAlpha" type="matrix" values="0 0 0 0 0 0 0 0 0 0 0 0 0 0 0 0 0 0 127 0" result="hardAlpha"/>
<feMorphology radius="4" operator="erode" in="SourceAlpha" result="effect1_dropShadow_194_3513"/>
<feOffset dy="4"/>
<feGaussianBlur stdDeviation="3"/>
<feComposite in2="hardAlpha" operator="out"/>
<feColorMatrix type="matrix" values="0 0 0 0 0.819608 0 0 0 0 0.980392 0 0 0 0 0.898039 0 0 0 1 0"/>
<feBlend mode="normal" in2="BackgroundImageFix" result="effect1_dropShadow_194_3513"/>
<feColorMatrix in="SourceAlpha" type="matrix" values="0 0 0 0 0 0 0 0 0 0 0 0 0 0 0 0 0 0 127 0" result="hardAlpha"/>
<feMorphology radius="3" operator="erode" in="SourceAlpha" result="effect2_dropShadow_194_3513"/>
<feOffset dy="10"/>
<feGaussianBlur stdDeviation="7.5"/>
<feComposite in2="hardAlpha" operator="out"/>
<feColorMatrix type="matrix" values="0 0 0 0 0.819608 0 0 0 0 0.980392 0 0 0 0 0.898039 0 0 0 1 0"/>
<feBlend mode="normal" in2="effect1_dropShadow_194_3513" result="effect2_dropShadow_194_3513"/>
<feBlend mode="normal" in="SourceGraphic" in2="effect2_dropShadow_194_3513" result="shape"/>
</filter>
<filter id="filter1_f_194_3513" x="32" y="22" width="28" height="28" filterUnits="userSpaceOnUse" color-interpolation-filters="sRGB">
<feFlood flood-opacity="0" result="BackgroundImageFix"/>
<feBlend mode="normal" in="SourceGraphic" in2="BackgroundImageFix" result="shape"/>
<feGaussianBlur stdDeviation="2" result="effect1_foregroundBlur_194_3513"/>
</filter>
<clipPath id="clip0_194_3513">
<rect x="12" y="2" width="40" height="40" rx="12" fill="white"/>
</clipPath>
</defs>
</svg>
