<svg width="260" height="168" viewBox="0 0 260 168" fill="none" xmlns="http://www.w3.org/2000/svg">
<path d="M11.5724 167.689C11.7922 167.909 54.7328 153.156 54.7328 153.156L38.1824 115.271L0 129.921L21.0242 141.997L11.5724 167.689Z" fill="#29E40C"/>
<path d="M31.7174 126.675V75.0975C31.7174 75.0975 90.9499 64.2622 133.632 64.9087C176.314 65.5552 220.263 72.5503 220.263 72.5503V122.072C220.263 122.072 86.489 110.125 31.7174 126.675Z" fill="#29E40C"/>
<path d="M31.407 126.727L54.6811 153.376V122.072C54.6811 122.072 35.2214 124.4 31.407 126.727Z" fill="#00BA00"/>
<path d="M31.7174 75.0846C31.9113 75.0846 31.9889 86.7216 31.9113 100.945C31.8337 115.168 31.601 126.805 31.42 126.805C31.239 126.805 31.1484 115.245 31.226 100.945C31.3036 86.644 31.5234 75.0846 31.7174 75.0846Z" fill="#00BA00"/>
<path d="M240.304 163.733C240.085 163.953 197.144 149.199 197.144 149.199L213.656 111.302L251.877 125.925L230.84 138.002L240.304 163.733Z" fill="#29E40C"/>
<path d="M220.496 122.77L197.222 149.419V120.378C205.025 120.646 212.801 121.445 220.496 122.77Z" fill="#00BA00"/>
<path d="M220.237 72.5504C220.418 72.5504 220.625 83.7866 220.69 97.6605C220.754 111.534 220.69 122.771 220.47 122.771C220.25 122.771 220.082 111.534 220.017 97.6605C219.953 83.7866 220.043 72.5504 220.237 72.5504Z" fill="#00BA00"/>
<path d="M65.1157 97.7121C64.9936 96.2272 65.312 94.7393 66.0311 93.4344C66.7502 92.1295 67.838 91.0656 69.1585 90.3756C70.479 89.6857 71.9737 89.4004 73.4555 89.5554C74.9373 89.7104 76.3405 90.2988 77.4897 91.2471L75.6795 93.4194C75.1923 92.9746 74.6127 92.6431 73.9823 92.4487C73.352 92.2542 72.6864 92.2015 72.0332 92.2945C70.8742 92.4556 69.8266 93.0707 69.1209 94.0042C68.4153 94.9378 68.1094 96.1134 68.2706 97.2725C68.4318 98.4316 69.0468 99.4792 69.9804 100.185C70.9139 100.89 72.0896 101.196 73.2487 101.035C73.906 100.949 74.5355 100.716 75.0905 100.353C75.6456 99.9904 76.112 99.5077 76.4553 98.9405L78.731 100.531C77.8879 101.757 76.7016 102.708 75.3208 103.264C73.94 103.819 72.4259 103.955 70.9683 103.654C69.5106 103.353 68.1741 102.629 67.1262 101.572C66.0782 100.515 65.3654 99.1723 65.0769 97.7121H65.1157Z" fill="white"/>
<path d="M79.2223 95.7726C78.9816 94.2798 79.1946 92.7491 79.8337 91.3787C80.4729 90.0083 81.5087 88.8614 82.8072 88.0865C84.1056 87.3115 85.6067 86.9443 87.1163 87.0322C88.6258 87.1201 90.0742 87.6593 91.2738 88.5797C92.4735 89.5002 93.3691 90.7597 93.8448 92.195C94.3205 93.6303 94.3544 95.1754 93.9419 96.6301C93.5295 98.0849 92.6898 99.3823 91.5316 100.354C90.3734 101.327 88.95 101.929 87.4458 102.082C86.4878 102.235 85.5088 102.191 84.5684 101.953C83.628 101.715 82.7461 101.287 81.9765 100.697C81.2069 100.106 80.5657 99.365 80.0922 98.5184C79.6186 97.6717 79.3226 96.7375 79.2223 95.7726ZM91.0015 94.5572C90.8964 93.7182 90.5466 92.9288 89.9958 92.2873C89.445 91.6459 88.7175 91.1808 87.9041 90.9501C87.0906 90.7194 86.2273 90.7333 85.4217 90.99C84.6161 91.2468 83.904 91.735 83.3741 92.3939C82.8442 93.0527 82.5199 93.853 82.4419 94.6949C82.3638 95.5368 82.5354 96.383 82.9351 97.1281C83.3349 97.8731 83.9452 98.484 84.6898 98.8845C85.4345 99.2849 86.2805 99.4573 87.1225 99.3801C87.7031 99.3419 88.2694 99.1836 88.7856 98.9151C89.3018 98.6467 89.7566 98.2739 90.1212 97.8206C90.4859 97.3672 90.7524 96.843 90.904 96.2813C91.0555 95.7195 91.0887 95.1324 91.0015 94.5572Z" fill="white"/>
<path d="M109.698 100.078L109.142 91.829L105.535 98.8888L104.113 98.9794L99.6517 92.6178L100.182 100.686L97.195 100.88L96.3675 87.1355L98.9535 86.9674L104.643 95.1779L109.155 86.3209L111.741 86.1528L112.672 99.8844L109.698 100.078Z" fill="white"/>
<path d="M127.503 90.6653C127.581 93.7426 125.331 95.708 121.659 95.8373L118.879 95.9149L118.995 99.7163L115.801 99.8068L115.413 85.9588L121.374 85.7907C125.059 85.7389 127.4 87.5879 127.503 90.6653ZM124.27 90.7558C124.27 89.243 123.223 88.3896 121.271 88.4413L118.685 88.5189L118.827 93.303L121.413 93.2254C123.352 93.1737 124.309 92.2557 124.27 90.7558Z" fill="white"/>
<path d="M129.986 85.6614H133.166V96.8329H140.071V99.4189H129.986V85.6614Z" fill="white"/>
<path d="M152.419 97.2337V99.8197L141.752 99.5094L142.152 85.739L152.496 86.0493L152.419 88.6353L145.178 88.4155L145.101 91.4152L151.488 91.5963L151.41 94.0788L145.023 93.8849L144.932 97.0786L152.419 97.2337Z" fill="white"/>
<path d="M158.315 88.9326L153.919 88.674L154.074 86.088L166.047 86.8121L165.892 89.3981L161.496 89.1266L160.824 100.285L157.643 100.091L158.315 88.9326Z" fill="white"/>
<path d="M177.646 99.1215L177.413 101.708L166.784 100.725L168.077 87.019L178.421 87.9759L178.189 90.5619L170.974 89.8378L170.702 92.8246L177.064 93.4065L176.844 95.8761L170.469 95.2943L170.185 98.4621L177.646 99.1215Z" fill="white"/>
<path d="M181.628 88.2732L187.822 89.1007C192.282 89.6955 194.985 92.7858 194.442 96.8587C193.899 100.932 190.459 103.324 185.998 102.677L179.805 101.85L181.628 88.2732ZM186.192 100.13C186.755 100.22 187.33 100.197 187.884 100.061C188.438 99.9257 188.958 99.6805 189.416 99.3403C189.873 99 190.258 98.5716 190.547 98.0803C190.835 97.5889 191.023 97.0447 191.098 96.4797C191.173 95.9147 191.135 95.3403 190.984 94.7906C190.834 94.2408 190.575 93.7267 190.222 93.2788C189.87 92.8308 189.431 92.4579 188.932 92.1823C188.433 91.9066 187.884 91.7337 187.317 91.6738L184.434 91.2859L183.309 99.7421L186.192 100.13Z" fill="white"/>
<path d="M246.731 77.244L250.118 81.2135L259.661 77.244L256.868 73.0676L246.731 77.244Z" fill="#29E40C"/>
<path d="M242.36 58.3532C242.36 59.3352 242.069 60.2952 241.524 61.1117C240.978 61.9282 240.203 62.5646 239.295 62.9404C238.388 63.3162 237.39 63.4145 236.427 63.2229C235.463 63.0313 234.579 62.5585 233.884 61.8641C233.19 61.1697 232.717 60.285 232.526 59.3218C232.334 58.3587 232.432 57.3604 232.808 56.4531C233.184 55.5459 233.82 54.7704 234.637 54.2248C235.453 53.6793 236.413 53.3881 237.395 53.3881C238.711 53.3915 239.972 53.9157 240.902 54.8461C241.833 55.7765 242.357 57.0374 242.36 58.3532Z" fill="#62FA62"/>
<path d="M131.136 132.416C131.134 132.908 130.985 133.389 130.709 133.796C130.433 134.203 130.042 134.519 129.586 134.704C129.13 134.889 128.629 134.934 128.147 134.833C127.665 134.733 127.224 134.492 126.88 134.14C126.536 133.788 126.304 133.342 126.213 132.859C126.123 132.375 126.179 131.875 126.373 131.423C126.567 130.971 126.891 130.587 127.304 130.319C127.717 130.052 128.201 129.913 128.693 129.921C129.347 129.931 129.97 130.199 130.428 130.666C130.885 131.133 131.14 131.762 131.136 132.416Z" fill="#62FA62"/>
<path d="M15.4773 95.1003C15.4773 95.4748 15.3659 95.8408 15.1573 96.1517C14.9487 96.4627 14.6523 96.7046 14.3058 96.8467C13.9594 96.9888 13.5785 97.0247 13.2116 96.9497C12.8447 96.8747 12.5084 96.6924 12.2455 96.4257C11.9825 96.1591 11.8048 95.8204 11.7349 95.4525C11.665 95.0846 11.7061 94.7042 11.853 94.3598C11.9998 94.0153 12.2458 93.7223 12.5596 93.518C12.8734 93.3137 13.2409 93.2074 13.6154 93.2125C14.1115 93.2193 14.5851 93.4212 14.9335 93.7745C15.282 94.1278 15.4773 94.6041 15.4773 95.1003Z" fill="#62FA62"/>
<path d="M8.46924 74.3217L14.0292 74.6579L16.6669 63.7191L11.469 63.9389L8.46924 74.3217Z" fill="#29E40C"/>
<path d="M182.249 161.638L184.123 166.888L195.217 165.026L192.98 160.332L182.249 161.638Z" fill="#62FA62"/>
<path d="M70.0419 131.343L66.6155 135.739L74.1278 144.105L76.8948 139.696L70.0419 131.343Z" fill="#29E40C"/>
<path d="M56.7629 28.0711L69.8869 41.4537L88.3639 34.4715L89.1009 39.0616L81.0972 55.444L88.4802 67.6758L87.8596 71.335L69.9774 68.3223L59.4006 79.9205L56.9181 78.0456L54.7329 63.2925L38.0532 54.6035L37.3162 51.2288L54.1123 46.6386L56.7629 28.0711Z" fill="#62FA62"/>
<path d="M56.7629 24.3084L69.8869 37.7039L88.3639 34.4714L79.6878 51.0994L88.4802 67.6757L69.9774 64.5725L56.9181 78.0456L54.164 59.491L37.3162 51.2287L54.1123 42.8759L56.7629 24.3084Z" fill="#62FA62"/>
<path d="M192.851 28.0711L179.715 41.4537L161.238 34.4715L160.501 39.0616L168.504 55.444L161.121 67.6758L161.742 71.335L179.624 68.3223L190.201 79.9205L192.683 78.0456L194.869 63.2925L211.548 54.6035L212.285 51.2288L195.489 46.6386L192.851 28.0711Z" fill="#62FA62"/>
<path d="M192.851 24.3084L179.715 37.7039L161.238 34.4714L169.914 51.0994L161.121 67.6757L179.624 64.5725L192.683 78.0456L195.437 59.491L212.285 51.2287L195.489 42.8759L192.851 24.3084Z" fill="#62FA62"/>
<path d="M124.374 4.57721L135.3 25.9247L160.501 24.4377L159.647 30.308L143.64 47.2592L147.971 64.9863L145.838 69.2144L125.163 58.7281L107.85 68.8653L105.535 65.6198L108.483 46.7808L91.4414 29.8295L91.8293 25.4463L114.069 26.235L124.374 4.57721Z" fill="#62FA62"/>
<path d="M125.796 0L136.722 21.3345L160.5 24.4377L143.575 41.4278L147.971 64.9863L126.598 54.1509L105.535 65.6199L109.246 41.9321L91.829 25.4463L115.504 21.6449L125.796 0Z" fill="#62FA62"/>
</svg>
